<svg width="120" height="26" viewBox="0 0 70 26" fill="none" xmlns="http://www.w3.org/2000/svg">
  <path
    d="M12.7177 6.85707C13.7846 7.97634 14.3181 9.63617 14.3181 11.8366V20.4522H10.2576V12.5077C10.2576 11.3143 10.0144 10.4237 9.52816 9.83583C9.0419 9.24794 8.33836 8.95438 7.41754 8.95514C6.39407 8.95514 5.57851 9.29527 4.97087 9.97554C4.36324 10.6558 4.05942 11.6674 4.05942 13.0104V20.4545H0V6.66123L3.8796 4.77274V7.16513C4.42647 6.52394 5.11261 6.02161 5.88346 5.69809C6.7165 5.34529 7.61124 5.16879 8.51331 5.17929C10.2486 5.17853 11.65 5.73779 12.7177 6.85707Z"
    fill="white" />
  <path d="M17.7255 6.66164V20.4545H21.8163V4.77274L17.7255 6.66164Z" fill="white" />
  <path d="M21.8163 0V3.55729L17.7255 5.45451V1.89837L21.8163 0Z" fill="white" />
  <path d="M42.2742 1.90247V5.45451L46.3651 3.55204V0L42.2742 1.90247Z" fill="white" />
  <path
    d="M37.2599 6.85707C38.3269 7.97634 38.8603 9.63617 38.8603 11.8366V20.4522H34.7998V12.5077C34.7998 11.3143 34.5567 10.4237 34.0704 9.83583C33.5841 9.24794 32.8813 8.95438 31.962 8.95514C30.9378 8.95514 30.1222 9.29527 29.5154 9.97554C28.9085 10.6558 28.6046 11.6674 28.6039 13.0104V20.4545H24.5422V6.66123L28.4218 4.77274V7.16513C28.9687 6.52394 29.6548 6.02161 30.4257 5.69809C31.2604 5.34414 32.1571 5.16723 33.0612 5.17815C34.7927 5.17815 36.1923 5.73779 37.2599 6.85707Z"
    fill="white" />
  <path
    d="M46.3635 4.77274V20.271C46.3635 22.0143 45.8816 23.3896 44.9179 24.3969C43.9542 25.4042 42.607 25.9082 40.8764 25.909C39.3985 25.909 38.273 25.6316 37.4999 25.0768L38.6328 21.9389C39.1197 22.2898 39.7143 22.4649 40.4167 22.4641C40.9581 22.4641 41.3792 22.2856 41.6873 21.9241C41.9953 21.5626 42.1469 21.0214 42.1469 20.2995V6.65659L46.3635 4.77274Z"
    fill="white" />
  <path fill-rule="evenodd" clip-rule="evenodd"
    d="M64.0873 20.2336V6.6349L59.9122 4.77274V6.96578C58.877 5.77026 57.441 5.1725 55.6041 5.1725C54.3135 5.15552 53.0422 5.47976 51.9246 6.11092C50.8202 6.74331 49.9242 7.67166 49.3425 8.78617C48.7187 9.94329 48.4064 11.2856 48.4056 12.8131C48.4048 14.3407 48.7172 15.683 49.3425 16.8401C49.924 17.9551 50.82 18.8838 51.9246 19.5165C53.0423 20.1473 54.3136 20.4711 55.6041 20.4538C57.5658 20.4553 59.0642 19.8116 60.0993 18.5227V20.2336H64.0873ZM59.9889 12.8131C59.9889 14.0644 59.6423 15.0619 58.9492 15.8057C58.2857 16.5369 57.3264 16.9455 56.3267 16.9225C55.2538 16.9218 54.3708 16.5495 53.6776 15.8057C52.9845 15.0619 52.6379 14.0644 52.6379 12.8131C52.6348 11.5626 52.9814 10.5651 53.6776 9.82055C54.3739 9.07598 55.2569 8.7037 56.3267 8.7037C57.3264 8.68077 58.2857 9.0893 58.9492 9.82055C59.6423 10.5644 59.9889 11.5619 59.9889 12.8131Z"
    fill="white" />
</svg>